<?xml version="1.0" encoding="UTF-8"?>
<svg width="50px" height="50px" viewBox="0 0 60 60" version="1.1" xmlns="http://www.w3.org/2000/svg" xmlns:xlink="http://www.w3.org/1999/xlink">
    <g id="Artboard" stroke="none" stroke-width="1" fill="none" fill-rule="evenodd">
        <path d="M41.3432836,17.0099502 C41.3432836,17.0099502 26.380597,17.0099502 26.380597,17.0099502 L26.380597,31.9726368 C26.380597,36.7238806 30.2238806,40.5671642 34.9751244,40.5671642 L41.3432836,40.5671642 C46.0945274,40.5671642 49.9378109,36.7238806 49.9378109,31.9726368 L49.9378109,25.6044776 C49.9378109,20.8532338 46.0945274,17.0099502 41.3432836,17.0099502 Z" id="Path" fill="#0F7AD2" fill-rule="nonzero"></path>
        <path d="M15.0248756,9.02487562 L8.65671642,9.02487562 C3.90547264,9.02487562 0.0621890547,12.8681592 0.0621890547,17.619403 L0.0621890547,23.9875622 C0.0621890547,28.738806 3.90547264,32.5820896 8.65671642,32.5820896 L23.619403,32.5820896 L23.619403,17.619403 C23.619403,12.8681592 19.7761194,9.02487562 15.0248756,9.02487562 Z" id="Path" fill="#231F20" fill-rule="nonzero"></path>
        <animateTransform 
          attributeName="transform" 
          type="rotate" 
          from="0 25 25" 
          to="360 25 25"
          dur="0.8s"
          values="0 25 25; 360 25 25"
          keySplines=".42,0,.58,1"
          calcMode="spline"
          repeatCount="indefinite"
         />
    </g>
</svg>